<svg width="24" height="24" viewBox="0 0 24 24" fill="none" xmlns="http://www.w3.org/2000/svg">
<path d="M20.89 5.18V16.48C20.89 18.46 19.28 20.07 17.3 20.07C15.33 20.07 13.71 18.46 13.71 16.48C13.71 14.51 15.33 12.9 17.3 12.9C18.14 12.9 18.89 13.19 19.5 13.67V7.72L10.29 10.34V18.41C10.29 20.39 8.67 22 6.7 22C4.72 22 3.11 20.39 3.11 18.41C3.11 16.44 4.72 14.83 6.7 14.83C7.53 14.83 8.28 15.12 8.89 15.59V6.75C8.89 5.28 9.78 4.14 11.19 3.76L16.97 2.18C18.14 1.86 19.13 1.97 19.83 2.51C20.54 3.04 20.89 3.94 20.89 5.18Z" fill="#151827"/>
</svg>
