<svg width="40" height="40" viewBox="0 0 40 40" fill="none" xmlns="http://www.w3.org/2000/svg">
<g clip-path="url(#clip0_1_10)">
<path d="M5.53851 17.481V12.9122C5.53851 12.6257 5.61513 12.3445 5.76041 12.0975C5.9057 11.8506 6.11438 11.647 6.36481 11.5079L10.358 9.28946" stroke="white" stroke-width="2.42217" stroke-linecap="round" stroke-linejoin="round"/>
<path d="M24.8194 33.387L20.779 35.6312C20.5403 35.7638 20.2718 35.8333 19.9987 35.8333C19.7257 35.8333 19.4572 35.7637 19.2186 35.631L15.1804 33.387" stroke="white" stroke-width="2.42217" stroke-linecap="round" stroke-linejoin="round"/>
<path d="M34.4595 22.519V27.0857C34.4595 27.3721 34.383 27.6533 34.2378 27.9001C34.0926 28.147 33.8841 28.3506 33.6338 28.4897L29.64 30.7105" stroke="white" stroke-width="2.42217" stroke-linecap="round" stroke-linejoin="round"/>
<path d="M15.1804 6.61304L19.2209 4.36879C19.4595 4.23622 19.7281 4.16666 20.0011 4.16669C20.2741 4.16672 20.5426 4.23633 20.7813 4.36896L24.8194 6.61304" stroke="white" stroke-width="2.42217" stroke-linecap="round" stroke-linejoin="round"/>
<path d="M19.9981 4.168V8.75448" stroke="white" stroke-width="2.42217" stroke-linecap="round" stroke-linejoin="round"/>
<path d="M19.9981 31.2455V35.8334" stroke="white" stroke-width="2.42217" stroke-linecap="round" stroke-linejoin="round"/>
<path d="M5.76636 12.1L9.75157 14.297" stroke="white" stroke-width="2.42217" stroke-linecap="round" stroke-linejoin="round"/>
<path d="M30.2455 25.7031L34.2315 27.9006" stroke="white" stroke-width="2.42217" stroke-linecap="round" stroke-linejoin="round"/>
<path d="M34.4595 17.481V12.9143C34.4595 12.628 34.383 12.3468 34.2378 12.0999C34.0926 11.853 33.8841 11.6495 33.6338 11.5103L29.64 9.28946" stroke="white" stroke-width="2.42217" stroke-linecap="round" stroke-linejoin="round"/>
<path d="M5.53851 22.519V27.0857C5.53851 27.3721 5.61507 27.6533 5.76026 27.9001C5.90545 28.147 6.11399 28.3506 6.36428 28.4897L10.358 30.7105" stroke="white" stroke-width="2.42217" stroke-linecap="round" stroke-linejoin="round"/>
<path d="M34.2295 12.1006L30.2455 14.2969" stroke="white" stroke-width="2.42217" stroke-linecap="round" stroke-linejoin="round"/>
<path d="M19.2482 26.4679L14.723 23.8821C14.4921 23.7502 14.3002 23.5595 14.1667 23.3295C14.0333 23.0995 13.963 22.8384 13.963 22.5724V17.4276C13.963 17.1617 14.0333 16.9005 14.1667 16.6705C14.3002 16.4405 14.4921 16.2499 14.723 16.1179L19.2482 13.5321C19.4761 13.4019 19.7341 13.3333 19.9966 13.3333C20.2591 13.3333 20.5171 13.4019 20.745 13.5321L25.2702 16.1179C25.5011 16.2499 25.693 16.4405 25.8264 16.6705C25.9599 16.9005 26.0302 17.1617 26.0302 17.4276V22.5724C26.0302 22.8384 25.9599 23.0995 25.8264 23.3295C25.693 23.5595 25.5011 23.7502 25.2702 23.8821L20.7449 26.4679C20.517 26.5982 20.259 26.6667 19.9965 26.6667C19.734 26.6667 19.4761 26.5982 19.2482 26.4679Z" stroke="white" stroke-width="2.42217" stroke-linecap="round" stroke-linejoin="round"/>
<path d="M14.1713 16.6705L19.9979 20" stroke="white" stroke-width="2.42217" stroke-linecap="round" stroke-linejoin="round"/>
<path d="M25.8247 16.6705L19.9981 20" stroke="white" stroke-width="2.42217" stroke-linecap="round" stroke-linejoin="round"/>
<path d="M19.9981 20V26.6644" stroke="white" stroke-width="2.42217" stroke-linecap="round" stroke-linejoin="round"/>
<path d="M9.74618 25.7031L5.75983 27.9007" stroke="white" stroke-width="2.42217" stroke-linecap="round" stroke-linejoin="round"/>
</g>
<defs>
<clipPath id="clip0_1_10">
<rect width="40" height="40" fill="white"/>
</clipPath>
</defs>
</svg>
