<svg width="40" height="40" viewBox="0 0 40 40" fill="none" xmlns="http://www.w3.org/2000/svg">
<g clip-path="url(#clip0_1_43)">
<path d="M20.7827 5.03801C23.0556 7.31086 23.0556 10.9959 20.7827 13.2687C18.5099 15.5416 14.8248 15.5416 12.552 13.2687C10.2791 10.9959 10.2791 7.31086 12.552 5.03801C14.8248 2.76516 18.5099 2.76516 20.7827 5.03801Z" stroke="white" stroke-width="2.42217" stroke-linecap="round" stroke-linejoin="round"/>
<path d="M23.9393 21.3267C21.7743 20.4617 19.2343 19.985 16.6677 19.985C9.921 19.985 3.33434 23.2634 3.33434 28.305V29.9717C3.33434 30.8917 4.081 31.6384 5.001 31.6384H20.6893" stroke="white" stroke-width="2.42217" stroke-linecap="round" stroke-linejoin="round"/>
<path d="M28.3343 36.6667C23.7327 36.6667 20.001 32.9367 20.001 28.3334C20.001 23.8267 23.8343 19.9951 28.341 20.0001C32.941 20.0034 36.6677 23.7334 36.6677 28.3334C36.6677 32.935 32.9377 36.6667 28.3343 36.6667Z" stroke="white" stroke-width="2.42217" stroke-linecap="round" stroke-linejoin="round"/>
<path d="M31.2784 27.2767L28.3318 30.2234L25.3851 27.2767" stroke="white" stroke-width="2.42217" stroke-linecap="round" stroke-linejoin="round"/>
</g>
<defs>
<clipPath id="clip0_1_43">
<rect width="40" height="40" fill="white"/>
</clipPath>
</defs>
</svg>
